<?xml version="1.0" standalone="no"?>
<!DOCTYPE svg PUBLIC "-//W3C//DTD SVG 20010904//EN"
 "http://www.w3.org/TR/2001/REC-SVG-20010904/DTD/svg10.dtd">
<svg version="1.0" xmlns="http://www.w3.org/2000/svg"
 width="340.000000pt" height="340.000000pt" viewBox="0 0 340.000000 340.000000"
 preserveAspectRatio="xMidYMid meet">

<g transform="translate(0.000000,340.000000) scale(0.100000,-0.100000)"
fill="#000000" stroke="none">
<path d="M1220 2574 c-145 -39 -249 -146 -299 -305 -15 -47 -14 -204 1 -269
11 -48 13 -51 37 -45 41 10 160 66 173 82 9 11 -4 30 -68 96 l-79 82 86 -83
85 -83 60 44 c68 51 184 169 184 188 0 8 -33 47 -72 89 l-73 75 78 -75 c74
-71 79 -74 93 -56 14 19 14 19 14 1 0 -14 24 4 88 65 l87 85 -87 -90 c-49 -50
-88 -95 -88 -100 0 -6 53 -63 118 -128 l117 -117 104 104 104 105 -17 26 c-30
46 -157 174 -195 197 -20 12 -38 25 -41 29 -14 19 -137 72 -197 84 -85 18
-142 18 -213 -1z"/>
<path d="M1420 2236 c-11 -30 -5 -50 13 -40 7 3 5 -1 -4 -8 -16 -13 -15 -17
12 -48 35 -43 35 -48 4 -60 -22 -8 -24 -13 -16 -29 8 -15 7 -20 -5 -25 -8 -3
-12 -11 -9 -17 4 -5 0 -16 -8 -22 -9 -7 -17 -28 -19 -47 l-3 -35 -50 1 c-32 1
-63 9 -85 23 -19 11 -42 21 -51 21 -11 0 -32 -33 -61 -97 l-45 -98 41 -18 c22
-10 74 -28 114 -40 l73 -21 47 47 46 47 -49 52 -50 53 52 -49 c51 -49 53 -49
72 -31 11 10 18 22 15 26 -3 5 1 9 8 9 15 0 198 180 198 195 0 6 -52 62 -115
125 l-114 114 -11 -28z"/>
<path d="M1686 2031 l-198 -198 37 -7 c20 -4 70 -20 111 -36 41 -15 74 -24 74
-19 0 5 -7 26 -15 46 -8 19 -15 39 -15 44 0 15 36 10 87 -13 43 -19 45 -22 23
-26 -34 -5 -59 -29 -53 -52 4 -13 21 -21 70 -30 l65 -13 164 164 c90 90 164
167 164 170 0 10 -113 29 -135 23 -15 -4 -38 14 -95 71 -41 41 -77 75 -80 75
-3 0 -95 -89 -204 -199z m252 59 c-11 -17 -8 -24 20 -53 44 -45 27 -56 -18
-12 -32 32 -38 34 -50 21 -7 -9 -17 -13 -22 -10 -5 4 7 24 28 45 38 39 64 44
42 9z m-108 -99 c0 -5 -7 -14 -15 -21 -14 -12 -21 -40 -10 -40 4 0 20 7 36 16
24 12 34 13 45 3 21 -17 17 -32 -16 -64 -21 -20 -30 -24 -30 -13 0 8 9 23 20
33 29 26 14 37 -26 18 -31 -15 -36 -16 -50 -1 -15 15 -14 19 7 47 22 30 39 40
39 22z"/>
<path d="M2195 2040 c-19 -21 -19 -21 60 -100 44 -44 85 -80 91 -80 19 0 104
98 124 142 10 24 18 43 17 44 -1 1 -63 5 -137 8 -130 7 -136 6 -155 -14z"/>
<path d="M2045 1890 c-117 -118 -119 -119 -100 -140 24 -26 78 -26 174 0 70
20 185 70 206 91 6 6 -20 38 -70 89 -44 44 -82 80 -85 80 -3 0 -59 -54 -125
-120z"/>
<path d="M1710 1838 c0 -7 4 -19 9 -26 6 -10 11 -10 21 3 12 14 11 18 -1 26
-20 12 -29 11 -29 -3z"/>
<path d="M1401 1746 c-38 -38 -59 -66 -52 -70 6 -4 65 -10 132 -13 l122 -6
-22 22 c-17 17 -22 30 -17 52 5 25 1 31 -38 54 -23 14 -47 25 -52 25 -5 0 -38
-29 -73 -64z"/>
<path d="M1900 1745 c-11 -13 -8 -15 20 -15 28 0 31 2 20 15 -7 8 -16 15 -20
15 -4 0 -13 -7 -20 -15z"/>
<path d="M1585 1729 c-10 -14 34 -59 51 -52 10 4 11 10 4 24 -14 25 -47 42
-55 28z"/>
<path d="M1650 1660 c0 -5 7 -10 16 -10 8 0 12 5 9 10 -3 6 -10 10 -16 10 -5
0 -9 -4 -9 -10z"/>
<path d="M1883 1379 c-18 -5 -34 -13 -37 -18 -3 -4 14 -26 37 -49 l43 -42 49
50 c27 27 46 53 42 56 -11 12 -100 14 -134 3z"/>
<path d="M91 1358 c-54 -29 -81 -76 -81 -141 0 -80 29 -119 129 -172 65 -35
77 -64 37 -90 -24 -16 -59 -12 -121 11 -9 4 -19 -12 -31 -51 -20 -63 -19 -67
46 -85 88 -25 170 -5 214 52 28 37 43 109 32 152 -10 39 -60 90 -108 111 -57
25 -78 44 -78 70 0 35 24 48 79 43 l49 -5 20 51 c24 62 19 67 -77 73 -56 4
-73 1 -110 -19z"/>
<path d="M360 1325 l0 -55 50 0 50 0 0 -225 0 -225 60 0 60 0 2 223 3 222 53
3 52 3 0 55 0 54 -165 0 -165 0 0 -55z"/>
<path d="M750 1140 l5 -240 31 -31 c45 -45 117 -62 184 -45 49 13 100 48 100
70 0 5 -17 -6 -37 -25 -28 -25 -25 -20 10 18 l47 52 0 78 0 79 -60 59 -60 59
0 -126 c0 -102 -3 -130 -16 -142 -18 -19 -38 -20 -65 -6 -17 10 -19 22 -19
137 l0 126 -22 -19 -22 -19 22 29 c33 43 30 111 -5 150 -16 17 -19 23 -7 13
27 -22 34 -22 34 3 0 18 -7 20 -62 20 l-63 0 5 -240z"/>
<path d="M970 1348 l0 -32 30 29 c17 16 30 30 30 32 0 2 -13 3 -30 3 -27 0
-30 -3 -30 -32z"/>
<path d="M1007 1342 c-30 -31 -37 -45 -37 -78 0 -35 7 -46 60 -99 l60 -59 0
137 c0 136 0 137 -23 137 -13 0 -38 -16 -60 -38z"/>
<path d="M1170 1354 c0 -26 1 -27 20 -9 40 36 104 -11 74 -54 -19 -27 -42 -27
-71 1 -20 18 -23 19 -23 5 0 -16 13 -31 55 -65 13 -12 21 -8 50 21 19 19 35
39 35 45 0 5 -10 24 -23 43 -20 30 -29 34 -70 37 -45 3 -47 2 -47 -24z"/>
<path d="M1346 1349 c12 -25 14 -37 5 -56 -9 -19 -7 -27 10 -44 l21 -21 44 43
c34 33 41 46 34 59 -10 19 -79 50 -110 50 -20 0 -20 -1 -4 -31z"/>
<path d="M1570 1252 l0 -128 55 -54 54 -54 -54 -57 c-48 -50 -55 -63 -55 -98
l0 -41 59 0 60 0 0 280 1 280 -60 0 -60 0 0 -128z"/>
<path d="M2380 1347 c0 -22 8 -41 24 -56 l24 -23 11 21 c7 13 22 21 37 21 21
0 25 -4 22 -22 -3 -24 -48 -40 -48 -18 0 6 -5 8 -11 4 -7 -4 3 -20 25 -43 30
-30 36 -44 36 -79 0 -38 -2 -42 -25 -42 -22 0 -25 4 -25 39 0 32 4 40 20 43
18 3 13 11 -35 57 l-55 54 0 -37 c0 -27 3 -35 13 -30 10 6 10 4 0 -7 -9 -8
-13 -44 -13 -101 l0 -88 69 0 c92 0 112 16 118 94 3 40 0 65 -10 80 -13 19
-13 25 -1 41 16 21 18 63 5 83 -16 26 -64 42 -122 42 l-59 0 0 -33z"/>
<path d="M2600 1369 c0 -5 5 -7 10 -4 6 3 10 8 10 11 0 2 -4 4 -10 4 -5 0 -10
-5 -10 -11z"/>
<path d="M2646 1358 c-17 -24 -22 -53 -7 -43 5 3 12 -3 16 -13 3 -11 21 -34
41 -51 38 -35 60 -35 83 0 18 30 50 129 41 129 -4 0 -10 -10 -13 -22 -6 -21
-7 -21 -27 -3 -26 24 -37 13 -21 -22 12 -25 10 -30 -15 -51 l-27 -24 -18 24
c-10 12 -19 37 -19 55 0 41 -14 49 -34 21z"/>
<path d="M3070 1246 c0 -110 -3 -135 -15 -140 -23 -8 -45 4 -45 25 0 15 -7 19
-36 19 -37 0 -37 0 -31 -37 9 -55 38 -78 96 -78 38 0 55 5 75 24 26 24 26 26
26 173 l0 148 -35 0 -35 0 0 -134z"/>
<path d="M3190 1237 c0 -159 7 -180 63 -195 47 -13 92 -4 119 25 22 23 23 34
26 169 l3 144 -40 0 -40 0 -3 -132 -3 -133 -25 0 -25 0 -3 133 -3 132 -34 0
-35 0 0 -143z"/>
<path d="M1985 1320 c-40 -40 -45 -50 -29 -50 27 0 44 -19 44 -50 0 -18 16
-42 53 -78 29 -29 56 -52 61 -52 5 0 6 45 4 101 -5 105 -17 134 -64 165 -18
13 -24 9 -69 -36z"/>
<path d="M1806 1331 c-9 -10 -21 -33 -26 -52 -12 -41 -13 -149 -2 -149 8 0 97
90 122 123 12 16 9 22 -25 57 -22 22 -42 40 -45 40 -4 0 -14 -8 -24 -19z"/>
<path d="M1452 1288 c-18 -18 -15 -32 13 -58 l25 -23 0 30 c0 56 -14 75 -38
51z"/>
<path d="M1397 1232 c-25 -26 -26 -32 -29 -157 l-3 -130 -37 -3 -38 -3 0 93 0
92 -50 -49 c-27 -27 -50 -54 -50 -59 0 -6 35 -47 78 -91 l77 -80 -80 78 c-44
42 -84 77 -88 77 -4 0 -7 -41 -7 -91 l0 -91 118 4 c185 6 202 26 202 241 l0
133 -33 32 -33 32 -27 -28z"/>
<path d="M1827 1161 l-59 -62 4 -87 c2 -74 7 -92 28 -120 36 -48 80 -72 132
-72 42 0 48 4 116 74 69 70 72 76 72 121 0 44 -4 51 -60 108 l-60 62 0 -116
c0 -126 -6 -141 -55 -141 -49 0 -54 14 -57 159 l-3 135 -58 -61z"/>
<path d="M1260 1195 c-15 -9 -38 -12 -57 -9 l-33 6 0 -81 c0 -44 4 -81 8 -81
4 0 31 24 61 54 46 47 52 57 49 89 -3 35 -4 35 -28 22z"/>
<path d="M2673 1186 c4 -10 7 -47 7 -82 l0 -64 35 0 35 0 0 75 c0 73 -1 75
-24 75 -13 0 -32 3 -42 7 -14 5 -16 3 -11 -11z"/>
<path d="M1570 1015 c0 -47 4 -85 8 -85 11 0 82 74 82 86 0 11 -72 84 -83 84
-4 0 -7 -38 -7 -85z"/>
<path d="M2044 879 c-47 -48 -54 -60 -34 -54 40 12 76 42 90 75 7 17 11 33 8
35 -2 2 -31 -23 -64 -56z"/>
<path d="M2370 861 c0 -23 5 -41 13 -44 8 -3 239 -5 515 -6 l502 -1 0 45 0 45
-515 0 -515 0 0 -39z"/>
</g>
</svg>
